<svg xmlns="http://www.w3.org/2000/svg" width="24" height="24" viewBox="0 0 24 24">
  <path d="m 5.1505146,3.2093058 1.328125,0 3.2324219,6.0986328 0,-6.0986328 0.9570315,0 0,7.2900392 -1.3281253,0 -3.2324218,-6.098633 0,6.098633 -0.9570313,0 0,-7.2900392 z" />
  <path d="m 15.589968,3.8782511 q -1.074219,0 -1.708985,0.8007812 -0.629882,0.8007813 -0.629882,2.1826172 0,1.3769531 0.629882,2.1777344 0.634766,0.8007812 1.708985,0.8007812 1.074218,0 1.699218,-0.8007812 0.629883,-0.8007813 0.629883,-2.1777344 0,-1.3818359 -0.629883,-2.1826172 -0.625,-0.8007812 -1.699218,-0.8007812 z m 0,-0.8007813 q 1.533203,0 2.451172,1.0302735 0.917968,1.0253906 0.917968,2.7539062 0,1.7236328 -0.917968,2.7539063 -0.917969,1.0253902 -2.451172,1.0253902 -1.538086,0 -2.460938,-1.0253902 -0.917969,-1.0253907 -0.917969,-2.7539063 0,-1.7285156 0.917969,-2.7539062 0.922852,-1.0302735 2.460938,-1.0302735 z" />
  <path d="m 3.0768628,13.543512 6.1669922,0 0,0.830078 -2.5878906,0 0,6.459961 -0.9912109,0 0,-6.459961 -2.5878907,0 0,-0.830078 z" />
  <path d="m 11.541612,14.515192 -1.337891,3.62793 2.680664,0 -1.342773,-3.62793 z m -0.556641,-0.97168 1.118164,0 2.778321,7.290039 -1.025391,0 -0.664062,-1.870117 -3.2861333,0 -0.6640625,1.870117 -1.040039,0 2.7832028,-7.290039 z" />
  <path d="m 20.295581,19.793512 0,-1.958007 -1.611328,0 0,-0.810547 2.58789,0 0,3.129882 q -0.571289,0.405274 -1.259765,0.615235 -0.688477,0.205078 -1.469727,0.205078 -1.708984,0 -2.675781,-0.996094 -0.961914,-1.000976 -0.961914,-2.783203 0,-1.787109 0.961914,-2.783203 0.966797,-1.000977 2.675781,-1.000977 0.712891,0 1.352539,0.175782 0.644531,0.175781 1.186524,0.517578 l 0,1.049804 q -0.546875,-0.463867 -1.16211,-0.698242 -0.615234,-0.234375 -1.293945,-0.234375 -1.337891,0 -2.011719,0.747071 -0.668945,0.74707 -0.668945,2.226562 0,1.474609 0.668945,2.22168 0.673828,0.74707 2.011719,0.74707 0.522461,0 0.932617,-0.08789 0.410156,-0.09277 0.737305,-0.283203 z" />
</svg>
