<svg xmlns="http://www.w3.org/2000/svg" width="24" height="24" viewBox="0 0 24 24">
  <path d="m 11.309842,12.816769 0.971679,0 -2.387695,7.138672 -0.9130859,0 -2.3779297,-7.138672 0.9570312,0 1.4404297,4.526367 q 0.2001953,0.620117 0.4296875,1.630859 0.1513672,-0.708008 0.4541016,-1.660156 l 1.4257816,-4.49707 z"/>
  <path d="m 17.657498,19.955441 -4.448242,0 0,-0.761719 1.708984,-1.860352 q 0.952149,-1.040039 1.254883,-1.547851 0.302734,-0.512696 0.302734,-1.12793 0,-0.551758 -0.3125,-0.869141 -0.307617,-0.322265 -0.834961,-0.322265 -0.78125,0 -1.552734,0.668945 l -0.498047,-0.581055 q 0.9375,-0.839843 2.060547,-0.839843 0.947266,0 1.494141,0.517578 0.546875,0.517578 0.546875,1.391601 0,0.581055 -0.288086,1.191407 -0.288086,0.610351 -1.420899,1.831054 l -1.37207,1.459961 0,0.03906 3.359375,0 0,0.810547 z"/>
</svg>
